<svg width="81" height="81" viewBox="0 0 81 81" fill="none" xmlns="http://www.w3.org/2000/svg">
<path opacity="0.3" d="M80.5 40.5C80.5 62.5914 62.5914 80.5 40.5 80.5C18.4086 80.5 0.5 62.5914 0.5 40.5C0.5 18.4086 18.4086 0.5 40.5 0.5C62.5914 0.5 80.5 18.4086 80.5 40.5ZM11.4071 40.5C11.4071 56.5675 24.4325 69.5929 40.5 69.5929C56.5675 69.5929 69.5929 56.5675 69.5929 40.5C69.5929 24.4325 56.5675 11.4071 40.5 11.4071C24.4325 11.4071 11.4071 24.4325 11.4071 40.5Z" fill="#0F5439"/>
<circle cx="40.5" cy="40.5" r="29" fill="#0F5439"/>
<path d="M28.5991 51.0992L28.5988 51.0991C27.7261 50.4483 26.9255 49.4206 26.3427 48.259C25.7599 47.0973 25.4166 45.8451 25.4166 44.7666V32.3666C25.4166 30.0074 27.1715 27.4618 29.3911 26.6351L29.3921 26.6348L37.7083 23.5183C37.7084 23.5182 37.7085 23.5182 37.7086 23.5182C38.4621 23.2366 39.4615 23.0874 40.4833 23.0874C41.5051 23.0874 42.5045 23.2366 43.258 23.5182C43.2581 23.5182 43.2582 23.5182 43.2582 23.5183L51.5745 26.6348L51.5755 26.6351C53.7951 27.4618 55.55 30.0074 55.55 32.3666V44.7499C55.55 45.8371 55.2066 47.0892 54.624 48.2483C54.0415 49.4073 53.241 50.4313 52.3678 51.0824L52.3675 51.0826L45.2009 56.4326L45.2008 56.4325L45.1946 56.4373C43.9119 57.4264 42.224 57.9332 40.5 57.9332C38.7773 57.9332 37.0851 57.427 35.7648 56.4486C35.7647 56.4484 35.7645 56.4483 35.7644 56.4482L28.5991 51.0992ZM38.2418 24.9315L38.2412 24.9317L29.9245 28.0484L29.9238 28.0486C29.0962 28.3602 28.355 29.0225 27.8241 29.7906C27.293 30.559 26.9333 31.4898 26.9333 32.3832V44.7666C26.9333 45.661 27.2439 46.6892 27.7009 47.601C28.1578 48.5126 28.7932 49.3722 29.5008 49.9005L29.5009 49.9006L36.6672 55.2503C37.7292 56.0445 39.1282 56.4249 40.502 56.4249C41.876 56.4249 43.2782 56.0445 44.3477 55.2516L44.3491 55.2506L51.5157 49.9006L51.5166 49.8999C52.2314 49.3638 52.8668 48.505 53.3222 47.5943C53.7775 46.6837 54.0833 45.66 54.0833 44.7666V32.3666C54.0833 31.4804 53.7229 30.5538 53.1925 29.7864C52.662 29.0189 51.9223 28.354 51.0976 28.0338L51.0976 28.0338L51.0921 28.0317L42.7754 24.915L42.7755 24.9149L42.7664 24.9117C42.1282 24.6865 41.3001 24.5831 40.5007 24.5853C39.702 24.5875 38.8751 24.6951 38.2418 24.9315Z" fill="#FAFAFA" stroke="#FAFAFA"/>
<path d="M37.9131 41.5536L38.2667 41.9071L38.6202 41.5536L44.9036 35.2703C45.1916 34.9822 45.6751 34.9822 45.9631 35.2703C46.2512 35.5583 46.2512 36.0417 45.9631 36.3298L38.7965 43.4965C38.6452 43.6478 38.4579 43.7167 38.2667 43.7167C38.0755 43.7167 37.8882 43.6478 37.7369 43.4965L35.0536 40.8131C34.7655 40.5251 34.7655 40.0417 35.0536 39.7536C35.3416 39.4655 35.8251 39.4655 36.1131 39.7536L37.9131 41.5536Z" fill="#FAFAFA" stroke="#FAFAFA"/>
</svg>
