<svg width="80" height="81" viewBox="0 0 80 81" fill="none" xmlns="http://www.w3.org/2000/svg">
<path opacity="0.3" d="M80 40.5C80 62.5914 62.0914 80.5 40 80.5C17.9086 80.5 0 62.5914 0 40.5C0 18.4086 17.9086 0.5 40 0.5C62.0914 0.5 80 18.4086 80 40.5ZM10.9071 40.5C10.9071 56.5675 23.9325 69.5929 40 69.5929C56.0675 69.5929 69.0929 56.5675 69.0929 40.5C69.0929 24.4325 56.0675 11.4071 40 11.4071C23.9325 11.4071 10.9071 24.4325 10.9071 40.5Z" fill="#0F5439"/>
<circle cx="40" cy="40.5" r="29" fill="#0F5439"/>
<g clip-path="url(#clip0_123_580)">
<path d="M33.3333 45.4998C33.3333 43.6589 31.8409 42.1665 30 42.1665C28.159 42.1665 26.6666 43.6589 26.6666 45.4998V48.8332C26.6666 50.6741 28.159 52.1665 30 52.1665C31.8409 52.1665 33.3333 50.6741 33.3333 48.8332V45.4998Z" stroke="white" stroke-width="2" stroke-linecap="round" stroke-linejoin="round"/>
<path d="M53.3333 45.4998C53.3333 43.6589 51.8409 42.1665 50 42.1665C48.159 42.1665 46.6666 43.6589 46.6666 45.4998V48.8332C46.6666 50.6741 48.159 52.1665 50 52.1665C51.8409 52.1665 53.3333 50.6741 53.3333 48.8332V45.4998Z" stroke="white" stroke-width="2" stroke-linecap="round" stroke-linejoin="round"/>
<path d="M26.6666 45.4998V40.4998C26.6666 36.9636 28.0714 33.5722 30.5719 31.0717C33.0724 28.5713 36.4637 27.1665 40 27.1665C43.5362 27.1665 46.9276 28.5713 49.428 31.0717C51.9285 33.5722 53.3333 36.9636 53.3333 40.4998V45.4998" stroke="white" stroke-width="2" stroke-linecap="round" stroke-linejoin="round"/>
<path d="M50 52.1665C50 53.4926 48.9464 54.7644 47.0711 55.702C45.1957 56.6397 42.6522 57.1665 40 57.1665" stroke="white" stroke-width="2" stroke-linecap="round" stroke-linejoin="round"/>
</g>
<defs>
<clipPath id="clip0_123_580">
<rect width="40" height="40" fill="white" transform="translate(20 20.5)"/>
</clipPath>
</defs>
</svg>
